<svg width="1186" height="453" viewBox="0 0 1186 453" fill="none" xmlns="http://www.w3.org/2000/svg">
<path d="M485.2 263C484.267 263 482.333 262.867 479.4 262.6C476.6 262.2 473.333 261.733 469.6 261.2C465.867 260.667 462.133 260.133 458.4 259.6C454.667 258.933 451.267 258.333 448.2 257.8C445.267 257.133 443.267 256.6 442.2 256.2C442.2 255 442.4 253.933 442.8 253C443.333 251.933 443.8 251.133 444.2 250.6L450.4 249.8C453.467 249.4 455.667 248.6 457 247.4C458.467 246.067 459.4 244 459.8 241.2C460.2 238.267 460.4 234.333 460.4 229.4V144.6C460.4 141.8 460.667 139.467 461.2 137.6C461.733 135.6 462.267 134.267 462.8 133.6H431.2L426.8 166.6C425.867 167 424.333 167.467 422.2 168C420.2 168.533 417.8 168.8 415 168.8C414.467 166.8 413.733 164 412.8 160.4C412 156.8 411.267 152.733 410.6 148.2C409.933 143.533 409.467 138.667 409.2 133.6C410.933 131.467 413.533 129.267 417 127C420.467 124.6 423.8 123 427 122.2H516.6C520.067 123.267 523.4 124.933 526.6 127.2C529.8 129.467 532.267 131.6 534 133.6C533.467 141.067 532.6 148 531.4 154.4C530.2 160.667 529.133 165.467 528.2 168.8C525.4 168.8 522.933 168.533 520.8 168C518.8 167.467 517.333 167 516.4 166.6L511.8 134.8C509.933 134.533 507.133 134.2 503.4 133.8C499.667 133.267 495.867 133 492 133C489.2 133 487.133 133.467 485.8 134.4C484.467 135.333 483.6 136.733 483.2 138.6C482.8 140.467 482.6 142.667 482.6 145.2V235C482.6 238.333 482.2 241.2 481.4 243.6C480.6 246 479.8 247.733 479 248.8L500.2 251C500.467 251.4 500.733 252.067 501 253C501.4 253.933 501.6 255 501.6 256.2C499.733 257.933 497.133 259.533 493.8 261C490.6 262.333 487.733 263 485.2 263ZM589.948 263C589.015 263 587.082 262.867 584.148 262.6C581.348 262.2 578.082 261.733 574.348 261.2C570.748 260.667 567.082 260.133 563.348 259.6C559.615 258.933 556.282 258.333 553.348 257.8C550.415 257.133 548.415 256.6 547.348 256.2C547.348 255 547.548 253.933 547.948 253C548.348 251.933 548.748 251.133 549.148 250.6L554.948 249.8C558.148 249.4 560.415 248.533 561.748 247.2C563.215 245.733 564.082 243.6 564.348 240.8C564.748 238 564.948 234.2 564.948 229.4V149.6C564.948 144.267 565.415 140.333 566.348 137.8C567.282 135.267 568.082 133.733 568.748 133.2H549.548C549.148 132.933 548.682 132.4 548.148 131.6C547.615 130.8 547.282 129.867 547.148 128.8C547.948 127.867 549.148 126.933 550.748 126C552.348 124.933 553.948 124.067 555.548 123.4C557.282 122.6 558.548 122.2 559.348 122.2H603.348C604.015 122.867 604.615 123.867 605.148 125.2C605.682 126.533 605.948 128 605.948 129.6L597.348 132.2C595.348 132.867 593.548 133.667 591.948 134.6C590.482 135.4 589.282 136.933 588.348 139.2C587.548 141.333 587.148 144.733 587.148 149.4V184.6C591.415 184.6 596.282 184.533 601.748 184.4C607.348 184.267 612.948 184.067 618.548 183.8C624.282 183.533 629.615 183.267 634.548 183C639.482 182.6 643.615 182.267 646.948 182V149.6C646.948 144.267 647.415 140.333 648.348 137.8C649.282 135.267 650.082 133.733 650.748 133.2H631.348C630.948 132.933 630.482 132.4 629.948 131.6C629.415 130.8 629.082 129.867 628.948 128.8C629.748 127.867 630.948 126.933 632.548 126C634.282 124.933 635.948 124.067 637.548 123.4C639.282 122.6 640.482 122.2 641.148 122.2H685.348C686.015 122.867 686.615 123.867 687.148 125.2C687.682 126.533 687.948 128 687.948 129.6L679.348 132.2C677.215 132.867 675.348 133.667 673.748 134.6C672.282 135.533 671.148 137.133 670.348 139.4C669.548 141.533 669.148 144.867 669.148 149.4V235C669.148 238.467 668.748 241.4 667.948 243.8C667.148 246.2 666.348 247.867 665.548 248.8L686.148 251C686.415 251.4 686.682 252.067 686.948 253C687.348 253.933 687.548 255 687.548 256.2C685.682 257.933 683.215 259.533 680.148 261C677.082 262.333 674.282 263 671.748 263C670.815 263 668.948 262.867 666.148 262.6C663.348 262.2 660.082 261.733 656.348 261.2C652.615 260.667 648.882 260.133 645.148 259.6C641.415 258.933 638.082 258.333 635.148 257.8C632.215 257.133 630.215 256.6 629.148 256.2C629.148 255 629.348 253.933 629.748 253C630.282 251.933 630.748 251.133 631.148 250.6L636.948 249.8C640.015 249.4 642.215 248.533 643.548 247.2C645.015 245.867 645.948 243.8 646.348 241C646.748 238.067 646.948 234.2 646.948 229.4V196.6H587.148V235C587.148 238.467 586.748 241.4 585.948 243.8C585.148 246.2 584.348 247.867 583.548 248.8L604.148 251C604.415 251.4 604.682 252.067 604.948 253C605.348 253.8 605.548 254.867 605.548 256.2C603.682 257.933 601.215 259.533 598.148 261C595.215 262.333 592.482 263 589.948 263ZM750.589 263C749.656 263 747.722 262.867 744.789 262.6C741.989 262.2 738.722 261.733 734.989 261.2C731.389 260.667 727.722 260.133 723.989 259.6C720.256 258.933 716.922 258.333 713.989 257.8C711.056 257.133 709.056 256.6 707.989 256.2C707.989 255 708.189 253.933 708.589 253C708.989 251.933 709.389 251.133 709.789 250.6L715.589 249.8C718.789 249.4 721.056 248.533 722.389 247.2C723.856 245.867 724.722 243.8 724.989 241C725.389 238.2 725.589 234.333 725.589 229.4V149.6C725.589 146 725.789 143.067 726.189 140.8C726.722 138.533 727.256 136.8 727.789 135.6C728.456 134.4 728.989 133.6 729.389 133.2H710.189C709.789 132.933 709.322 132.4 708.789 131.6C708.256 130.8 707.922 129.867 707.789 128.8C708.589 127.867 709.789 126.933 711.389 126C712.989 124.933 714.589 124.067 716.189 123.4C717.922 122.6 719.189 122.2 719.989 122.2H789.189C792.656 123.133 796.122 124.467 799.589 126.2C803.056 127.8 806.256 129.667 809.189 131.8C812.256 133.933 814.789 136.2 816.789 138.6C817.722 140.467 818.389 142.733 818.789 145.4C819.189 148.067 819.389 151 819.389 154.2C819.389 158.6 819.056 162.933 818.389 167.2C817.722 171.333 816.789 175 815.589 178.2C814.389 181.4 812.989 183.8 811.389 185.4C810.189 186.733 808.256 188.133 805.589 189.6C802.922 190.933 799.922 192.2 796.589 193.4C793.389 194.467 790.322 195.4 787.389 196.2V197.2C789.256 198.533 790.789 199.933 791.989 201.4C793.322 202.867 794.856 205.467 796.589 209.2L804.989 225.6C807.522 230.533 809.856 234.733 811.989 238.2C814.256 241.667 816.722 244.4 819.389 246.4C822.056 248.267 825.122 249.333 828.589 249.6L832.789 249.8C833.189 250.333 833.589 251.133 833.989 252.2C834.522 253.267 834.789 254.533 834.789 256C832.922 257.733 830.722 259.133 828.189 260.2C825.789 261.133 823.322 261.867 820.789 262.4C818.256 262.8 815.922 263 813.789 263C806.722 263 801.122 260.733 796.989 256.2C792.989 251.533 789.522 245.8 786.589 239L773.589 208.2C772.389 205.4 771.056 203.267 769.589 201.8C768.256 200.333 766.256 199.6 763.589 199.6H747.789V235C747.789 238.467 747.389 241.4 746.589 243.8C745.789 246.2 744.989 247.867 744.189 248.8L765.389 251C765.656 251.4 765.922 252.067 766.189 253C766.589 253.933 766.789 255 766.789 256.2C764.922 257.933 762.322 259.533 758.989 261C755.789 262.333 752.989 263 750.589 263ZM747.789 187.8C752.989 187.8 758.256 187.667 763.589 187.4C769.056 187.133 774.189 186.8 778.989 186.4C783.922 186 787.922 185.6 790.989 185.2C792.989 182.267 794.456 178.4 795.389 173.6C796.456 168.8 796.989 163.733 796.989 158.4C796.989 154 796.589 149.933 795.789 146.2C794.989 142.467 793.522 139.533 791.389 137.4C789.522 136.467 786.856 135.733 783.389 135.2C779.922 134.667 776.322 134.267 772.589 134C768.856 133.6 765.456 133.4 762.389 133.4C757.589 133.4 753.922 134.733 751.389 137.4C748.989 139.933 747.789 143.933 747.789 149.4V187.8ZM889.55 263C888.617 263 886.683 262.867 883.75 262.6C880.95 262.2 877.683 261.733 873.95 261.2C870.35 260.667 866.683 260.133 862.95 259.6C859.217 258.933 855.883 258.333 852.95 257.8C850.017 257.133 848.017 256.6 846.95 256.2C846.95 255 847.15 253.933 847.55 253C847.95 251.933 848.35 251.133 848.75 250.6L854.55 249.8C857.75 249.4 860.017 248.533 861.35 247.2C862.817 245.867 863.683 243.8 863.95 241C864.35 238.2 864.55 234.333 864.55 229.4V149.2C864.55 142.8 865.15 138.6 866.35 136.6C867.55 134.467 868.217 133.333 868.35 133.2H849.15C848.75 132.933 848.283 132.4 847.75 131.6C847.217 130.8 846.883 129.867 846.75 128.8C847.55 127.867 848.75 126.933 850.35 126C851.95 124.933 853.55 124.067 855.15 123.4C856.883 122.6 858.15 122.2 858.95 122.2H902.95C903.617 122.867 904.217 123.867 904.75 125.2C905.283 126.533 905.55 128 905.55 129.6L896.95 132.2C894.95 132.867 893.15 133.667 891.55 134.6C890.083 135.4 888.883 136.933 887.95 139.2C887.15 141.333 886.75 144.733 886.75 149.4V235C886.75 238.467 886.35 241.4 885.55 243.8C884.75 246.2 883.95 247.867 883.15 248.8L903.75 251C904.017 251.4 904.283 252.067 904.55 253C904.95 253.8 905.15 254.867 905.15 256.2C903.283 257.933 900.817 259.533 897.75 261C894.817 262.333 892.083 263 889.55 263ZM968.355 263C967.421 263 965.488 262.867 962.555 262.6C959.755 262.2 956.488 261.733 952.755 261.2C949.155 260.667 945.488 260.133 941.755 259.6C938.021 258.933 934.688 258.333 931.755 257.8C928.821 257.133 926.821 256.6 925.755 256.2C925.755 255 925.955 253.933 926.355 253C926.755 251.933 927.155 251.133 927.555 250.6L933.355 249.8C936.555 249.4 938.821 248.533 940.155 247.2C941.621 245.733 942.488 243.6 942.755 240.8C943.155 238 943.355 234.2 943.355 229.4V149.6C943.355 146 943.555 143.067 943.955 140.8C944.488 138.533 945.021 136.8 945.555 135.6C946.221 134.4 946.755 133.6 947.155 133.2H927.955C927.555 132.933 927.088 132.4 926.555 131.6C926.021 130.8 925.688 129.867 925.555 128.8C926.355 127.867 927.555 126.933 929.155 126C930.755 124.933 932.355 124.067 933.955 123.4C935.688 122.6 936.955 122.2 937.755 122.2H1016.55C1019.75 123.133 1023.02 124.667 1026.35 126.8C1029.82 128.933 1032.55 131.2 1034.55 133.6C1034.02 141.2 1033.15 148 1031.95 154C1030.75 160 1029.69 164.333 1028.75 167C1026.09 167 1023.69 166.8 1021.55 166.4C1019.55 165.867 1018.02 165.333 1016.95 164.8L1011.95 136.8C1009.02 136.133 1004.42 135.4 998.155 134.6C991.888 133.8 984.955 133.4 977.355 133.4C972.555 133.4 969.355 134.867 967.755 137.8C966.288 140.733 965.555 144.667 965.555 149.6V186.6C970.755 186.467 975.821 186.333 980.755 186.2C985.821 185.933 990.688 185.6 995.355 185.2C1000.02 184.8 1004.29 184.4 1008.15 184L1010.15 186C1010.02 188.933 1009.69 191.533 1009.15 193.8C1008.75 196.067 1008.35 197.667 1007.95 198.6H965.555V235C965.555 238.467 965.155 241.4 964.355 243.8C963.555 246.2 962.755 247.867 961.955 248.8L983.155 251C983.421 251.4 983.688 252.067 983.955 253C984.355 253.933 984.555 255 984.555 256.2C982.688 257.933 980.088 259.533 976.755 261C973.555 262.333 970.755 263 968.355 263ZM1098.95 263C1098.02 263 1096.08 262.867 1093.15 262.6C1090.35 262.2 1087.08 261.733 1083.35 261.2C1079.62 260.667 1075.88 260.133 1072.15 259.6C1068.42 258.933 1065.02 258.333 1061.95 257.8C1059.02 257.133 1057.02 256.6 1055.95 256.2C1055.95 255 1056.15 253.933 1056.55 253C1057.08 251.933 1057.55 251.133 1057.95 250.6L1064.15 249.8C1067.22 249.4 1069.42 248.6 1070.75 247.4C1072.22 246.067 1073.15 244 1073.55 241.2C1073.95 238.267 1074.15 234.333 1074.15 229.4V144.6C1074.15 141.8 1074.42 139.467 1074.95 137.6C1075.48 135.6 1076.02 134.267 1076.55 133.6H1044.95L1040.55 166.6C1039.62 167 1038.08 167.467 1035.95 168C1033.95 168.533 1031.55 168.8 1028.75 168.8C1028.22 166.8 1027.48 164 1026.55 160.4C1025.75 156.8 1025.02 152.733 1024.35 148.2C1023.68 143.533 1023.22 138.667 1022.95 133.6C1024.68 131.467 1027.28 129.267 1030.75 127C1034.22 124.6 1037.55 123 1040.75 122.2H1130.35C1133.82 123.267 1137.15 124.933 1140.35 127.2C1143.55 129.467 1146.02 131.6 1147.75 133.6C1147.22 141.067 1146.35 148 1145.15 154.4C1143.95 160.667 1142.88 165.467 1141.95 168.8C1139.15 168.8 1136.68 168.533 1134.55 168C1132.55 167.467 1131.08 167 1130.15 166.6L1125.55 134.8C1123.68 134.533 1120.88 134.2 1117.15 133.8C1113.42 133.267 1109.62 133 1105.75 133C1102.95 133 1100.88 133.467 1099.55 134.4C1098.22 135.333 1097.35 136.733 1096.95 138.6C1096.55 140.467 1096.35 142.667 1096.35 145.2V235C1096.35 238.333 1095.95 241.2 1095.15 243.6C1094.35 246 1093.55 247.733 1092.75 248.8L1113.95 251C1114.22 251.4 1114.48 252.067 1114.75 253C1115.15 253.933 1115.35 255 1115.35 256.2C1113.48 257.933 1110.88 259.533 1107.55 261C1104.35 262.333 1101.48 263 1098.95 263Z" fill="url(#paint0_linear_240_22)"/>
<path d="M176.697 41.0327L244.178 81.5267L278.394 61.0552L176.697 0L6.82617 101.998L40.8694 122.47L176.697 41.0327Z" fill="url(#paint1_linear_240_22)"/>
<path d="M312.438 81.5269L176.698 162.964L109.216 122.47L75.0864 142.941L176.698 203.907L346.655 101.998L312.438 81.5269Z" fill="url(#paint2_linear_240_22)"/>
<path d="M34.1296 218.542L0 198.07V320.001L169.87 421.999V381.056L34.1296 299.53V218.542Z" fill="url(#paint3_linear_240_22)"/>
<path d="M0 157.127L135.741 238.563V319.551L169.87 340.113V218.092L0 116.184V157.127Z" fill="url(#paint4_linear_240_22)"/>
<path d="M285.221 198.071V157.128L183.523 218.093V422L217.653 401.528V238.565L285.221 198.071Z" fill="url(#paint5_linear_240_22)"/>
<path d="M319.265 136.655V299.529L251.783 340.113V381.056L353.481 320V116.184L319.265 136.655Z" fill="url(#paint6_linear_240_22)"/>
<defs>
<linearGradient id="paint0_linear_240_22" x1="796.798" y1="127" x2="796.798" y2="452.694" gradientUnits="userSpaceOnUse">
<stop stop-color="#596E79"/>
<stop offset="1" stop-color="#A5837A"/>
</linearGradient>
<linearGradient id="paint1_linear_240_22" x1="142.61" y1="0" x2="142.61" y2="122.47" gradientUnits="userSpaceOnUse">
<stop stop-color="#596E79"/>
<stop offset="1" stop-color="#C8B69E"/>
</linearGradient>
<linearGradient id="paint2_linear_240_22" x1="210.87" y1="81.5269" x2="210.87" y2="203.907" gradientUnits="userSpaceOnUse">
<stop stop-color="#596E79"/>
<stop offset="1" stop-color="#C8B69E"/>
</linearGradient>
<linearGradient id="paint3_linear_240_22" x1="84.9352" y1="198.07" x2="84.9352" y2="421.999" gradientUnits="userSpaceOnUse">
<stop stop-color="#596E79"/>
<stop offset="1" stop-color="#C8B69E"/>
</linearGradient>
<linearGradient id="paint4_linear_240_22" x1="84.9352" y1="116.184" x2="84.9352" y2="340.113" gradientUnits="userSpaceOnUse">
<stop stop-color="#596E79"/>
<stop offset="1" stop-color="#C8B69E"/>
</linearGradient>
<linearGradient id="paint5_linear_240_22" x1="234.372" y1="157.128" x2="234.372" y2="422" gradientUnits="userSpaceOnUse">
<stop stop-color="#596E79"/>
<stop offset="1" stop-color="#C8B69E"/>
</linearGradient>
<linearGradient id="paint6_linear_240_22" x1="302.632" y1="116.184" x2="302.632" y2="381.056" gradientUnits="userSpaceOnUse">
<stop stop-color="#596E79"/>
<stop offset="1" stop-color="#C8B69E"/>
</linearGradient>
</defs>
</svg>
